# This file uses centimeters as units for non-parametric coordinates.

mtllib Stamp3.mtl
g default
v -1.869944 0.221141 -1.869943
v 1.869944 0.221141 -1.869943
v -1.869944 0.221141 1.869943
v 1.869944 0.221141 1.869943
vt 0.000000 0.500000
vt 0.250000 0.500000
vt 0.250000 0.750000
vt 0.000000 0.750000
vn 0.000000 1.000000 0.000000
vn 0.000000 1.000000 0.000000
vn 0.000000 1.000000 0.000000
vn 0.000000 1.000000 0.000000
g polySurface13 polySurface12 polySurface9 polySurface7 polySurface5 polySurface3 polySurface1 pPlane1
usemtl lambert2SG
f 3/1/1 4/2/2 2/3/3 1/4/4
