# This file uses centimeters as units for non-parametric coordinates.

g default
v -1.237646 3.841029 1.970404
v -3.088732 3.728912 1.123703
v -2.029870 1.722375 3.852949
v -5.447045 2.035972 2.951595
v -3.478736 0.697822 4.542006
v -5.368155 -0.104459 4.661909
v -6.138858 2.735836 0.546543
v -6.196045 -0.293307 2.057070
v -6.574546 -0.141658 0.832246
v 1.602276 3.315287 -4.121898
v 2.164927 2.299881 -5.647548
v 4.870234 -0.308989 -5.668846
v 8.087826 -0.403719 -4.096576
v 7.150200 1.877564 -3.226562
v 7.881654 -0.373351 -0.353985
v 8.188824 -0.345298 -1.771047
v 6.402885 2.348072 -1.958431
v 3.840382 4.541081 1.647012
v 6.999557 1.125535 4.490343
v 5.670499 -0.128246 6.924664
v 0.297708 -0.339687 5.127489
v 0.098818 2.097021 4.758980
v -0.517392 4.784568 -1.212918
v 3.135443 4.584232 -0.875822
v -0.386849 4.456737 -3.792193
v -7.287134 -0.246739 -3.621722
v -6.965656 -0.356400 -5.110185
v -5.466704 -0.365286 -6.654232
v -5.052497 2.765189 -6.269217
v -7.916936 -0.216960 -0.295416
v -3.573692 -0.333521 -5.589102
v -1.916222 3.605850 -5.970646
v 5.829145 3.483804 -0.592392
v 7.410641 1.697626 1.543503
v 8.446594 -0.214951 2.745890
v -0.445985 -0.166592 -6.934111
v 1.411986 -0.378339 -5.873686
v 0.390545 1.450645 -4.572822
v -1.757641 -0.202697 4.791641
v 6.324363 1.591521 -4.110106
v 7.513317 1.073648 -3.623486
v -2.082511 -0.290338 -6.608285
v 0.410328 -0.312746 -6.750577
v -0.062816 0.601175 -5.765588
v -6.770557 3.251556 -2.124666
v -7.087156 2.824429 -2.197998
v -6.152629 3.438603 -4.768117
v -6.553199 2.976612 -4.606917
v 1.458796 4.550638 3.160347
v 1.824087 4.817122 2.716783
v 0.965331 4.706770 2.785125
v 1.914530 5.799141 0.310333
v 1.728559 5.750566 -0.224360
v 1.210373 5.806252 -0.149994
v 1.238456 5.771717 0.296157
vt 0.516994 0.691576
vt 0.504995 0.838604
vt 0.434839 0.641616
vt 0.617892 0.800992
vt 0.366886 0.837589
vt 0.356789 0.746924
vt 0.265599 0.808338
vt 0.415591 0.933672
vt 0.563339 0.949641
vt 0.632445 0.937268
vt 0.651681 0.331185
vt 0.641412 0.146614
vt 0.765665 0.295209
vt 0.448114 0.130345
vt 0.497712 0.180226
vt 0.442582 0.172278
vt 0.257646 0.134808
vt 0.327563 0.088817
vt 0.407481 0.232543
vt 0.339931 0.439268
vt 0.350148 0.530832
vt 0.339927 0.553623
vt 0.119186 0.365826
vt 0.019241 0.480819
vt 0.110621 0.224947
vt 0.423316 0.483464
vt 0.442276 0.410462
vt 0.227762 0.278477
vt 0.271179 0.665689
vt 0.172569 0.729645
vt 0.364294 0.563119
vt 0.611622 0.401194
vt 0.442499 0.478443
vt 0.533830 0.545802
vt 0.452543 0.499873
vt 0.741431 0.771666
vt 0.802700 0.707047
vt 0.885918 0.824974
vt 0.935566 0.747126
vt 0.943258 0.621147
vt 0.819211 0.629763
vt 0.789726 0.687807
vt 0.730284 0.933559
vt 0.725229 0.756153
vt 0.733035 0.530959
vt 0.897946 0.517595
vt 0.625775 0.504390
vt 0.716510 0.400340
vt 0.435447 0.507189
vt 0.368850 0.307100
vt 0.778251 0.384843
vt 0.813346 0.339392
vt 0.833381 0.370204
vt 0.876761 0.432037
vt 0.459086 0.045664
vn -0.303362 0.929552 0.209532
vn -0.476119 0.655565 0.586128
vn -0.355409 0.813719 0.459941
vn -0.749689 0.506895 0.425469
vn -0.067453 0.499290 0.863806
vn -0.197138 0.588970 0.783742
vn -0.126801 0.295279 0.946959
vn -0.460658 0.396631 0.794027
vn -0.935156 0.180646 0.304714
vn -0.816244 0.178154 0.549552
vn -0.032738 0.602062 -0.797778
vn 0.298268 0.289691 -0.909459
vn -0.038454 0.393032 -0.918720
vn 0.769006 0.477493 -0.425006
vn 0.410361 0.590637 -0.694803
vn 0.694684 0.688675 -0.207703
vn 0.878336 0.478041 0.001307
vn 0.872243 0.478924 0.099116
vn 0.680577 0.699511 -0.217944
vn 0.526377 0.832626 0.172223
vn 0.133943 0.881433 0.452918
vn 0.015701 0.764561 0.644360
vn 0.619209 0.643360 0.450186
vn 0.220875 0.482157 0.847784
vn 0.910919 0.399665 0.102445
vn 0.234161 0.960770 0.148625
vn 0.476926 0.846008 -0.238355
vn 0.718838 0.690447 0.080965
vn -0.315190 0.436457 0.842710
vn -0.235957 0.126453 0.963501
vn -0.267661 0.844907 0.463130
vn 0.247351 0.771597 -0.586051
vn 0.245381 0.911421 -0.330302
vn -0.190233 0.977662 -0.089374
vn -0.238268 0.958090 -0.159038
vn -0.932511 0.356528 -0.057547
vn -0.898121 0.298548 -0.322875
vn -0.967154 0.153041 -0.202957
vn -0.819360 0.186838 -0.541979
vn -0.066464 0.004301 -0.997780
vn -0.436311 0.383868 -0.813804
vn -0.446929 0.819816 -0.357990
vn -0.904725 0.280349 0.320744
vn -0.504957 0.856113 0.109951
vn 0.249475 0.373746 -0.893351
vn 0.245631 0.155432 -0.956821
vn -0.020867 0.984069 -0.176560
vn -0.047933 0.436709 -0.898325
vn -0.275561 0.938940 0.206055
vn 0.559520 0.826989 -0.055013
vn 0.069900 0.833783 -0.547650
vn 0.343173 0.738902 -0.579876
vn 0.047432 0.827595 -0.559317
vn -0.208578 0.858058 -0.469289
vn 0.763821 0.423636 -0.486940
s 1
g polySurface26
f 2/1/1 4/2/2 1/3/3
f 2/1/1 7/4/4 4/2/2
f 4/2/2 5/5/5 3/6/6
f 4/2/2 3/6/6 1/3/3
f 39/7/7 5/5/5 6/8/8
f 5/5/5 4/2/2 6/8/8
f 39/7/7 3/6/6 5/5/5
f 4/2/2 8/9/9 6/8/8
f 4/2/2 7/4/4 8/9/9
f 8/9/9 7/4/4 9/10/10
f 11/11/11 12/12/12 37/13/13
f 41/14/14 40/15/15 14/16/16
f 15/17/17 16/18/18 17/19/19
f 16/18/18 41/14/14 14/16/16
f 18/20/20 50/21/21 49/22/22 19/23/23
f 19/23/23 49/22/22 20/24/24
f 19/23/23 20/24/24 35/25/25
f 52/26/26 50/21/21 18/20/20
f 24/27/27 18/20/20 34/28/28
f 22/29/29 21/30/30 20/24/24
f 3/6/6 39/7/7 22/29/29
f 22/29/29 39/7/7 21/30/30
f 1/3/3 22/29/29 49/22/22 51/31/31
f 19/23/23 35/25/25 34/28/28
f 19/23/23 34/28/28 18/20/20
f 24/27/27 10/32/32 53/33/33
f 10/32/32 23/34/34 54/35/35 53/33/33
f 10/32/32 24/27/27 17/19/19
f 46/36/36 48/37/37 26/38/38
f 26/38/38 48/37/37 27/39/39
f 28/40/40 27/39/39 29/41/41
f 29/41/41 27/39/39 48/37/37 47/42/42
f 9/10/10 7/4/4 30/43/43
f 30/43/43 7/4/4 45/44/44 46/36/36
f 29/41/41 32/45/45 28/40/40
f 28/40/40 32/45/45 31/46/46
f 32/45/45 25/47/47 10/32/32
f 10/32/32 38/48/48 32/45/45
f 31/46/46 32/45/45 38/48/48
f 25/47/47 32/45/45 47/42/42
f 32/45/45 29/41/41 47/42/42
f 23/34/34 25/47/47 2/1/1
f 25/47/47 47/42/42 45/44/44
f 25/47/47 45/44/44 2/1/1
f 2/1/1 1/3/3 23/34/34
f 23/34/34 1/3/3 55/49/49 54/35/35
f 34/28/28 17/19/19 33/50/50
f 35/25/25 15/17/17 17/19/19
f 24/27/27 33/50/50 17/19/19
f 10/32/32 17/19/19 11/11/11
f 38/48/48 10/32/32 11/11/11
f 37/13/13 38/48/48 11/11/11
f 17/19/19 34/28/28 35/25/25
f 51/31/31 55/49/49 1/3/3
f 23/34/34 10/32/32 25/47/47
f 24/27/27 34/28/28 33/50/50
f 44/51/51 43/52/52 36/53/53
f 42/54/54 44/51/51 36/53/53
f 3/6/6 22/29/29 1/3/3
f 17/19/19 16/18/18 14/16/16
f 16/18/18 13/55/55 41/14/14
f 12/12/12 40/15/15 41/14/14 13/55/55
f 40/15/15 12/12/12 11/11/11
f 17/19/19 14/16/16 40/15/15 11/11/11
f 38/48/48 44/51/51 42/54/54 31/46/46
f 38/48/48 37/13/13 43/52/52 44/51/51
f 45/44/44 7/4/4 2/1/1
f 46/36/36 26/38/38 30/43/43
f 46/36/36 45/44/44 47/42/42 48/37/37
f 49/22/22 22/29/29 20/24/24
f 53/33/33 52/26/26 18/20/20 24/27/27
f 51/31/31 50/21/21 52/26/26 55/49/49
f 49/22/22 50/21/21 51/31/31
f 52/26/26 53/33/33 54/35/35 55/49/49
