# This file uses centimeters as units for non-parametric coordinates.

g default
v 0.734765 -5.862489 -0.000000
v 2.958816 -5.114104 -0.000000
v -2.958816 5.114104 0.000000
v -0.734765 5.862489 0.000000
v 1.461242 -4.342521 1.173295
v 1.461242 -4.342521 -1.173295
v -2.232339 6.634071 1.173295
v -2.232339 6.634071 -1.173295
vt 0.000000 0.000000
vt 1.000000 0.000000
vt 0.000000 1.000000
vt 1.000000 1.000000
vt 0.000000 0.000000
vt 1.000000 0.000000
vt 1.000000 1.000000
vt 0.000000 1.000000
vn 0.000000 -0.000000 1.000000
vn 0.000000 -0.000000 1.000000
vn 0.000000 -0.000000 1.000000
vn 0.000000 -0.000000 1.000000
vn 0.947780 0.318924 0.000000
vn 0.947780 0.318924 0.000000
vn 0.947780 0.318924 0.000000
vn 0.947780 0.318924 0.000000
s off
g polySurface1
f 1/1/1 2/2/2 4/4/3 3/3/4
f 5/5/5 6/6/6 8/7/7 7/8/8
