# This file uses centimeters as units for non-parametric coordinates.

g default
v -2.828405 0.246901 1.869943
v -2.828405 0.246901 -1.869943
v 2.828405 0.246901 1.869943
v 2.828405 0.246901 -1.869943
vt 0.000000 0.250000
vt 0.000000 0.000000
vt 0.378140 0.000000
vt 0.378140 0.250000
vn 0.000000 1.000000 0.000000
vn 0.000000 1.000000 0.000000
vn 0.000000 1.000000 0.000000
vn 0.000000 1.000000 0.000000
s off
g polySurface64 polySurface62 polySurface60 polySurface44 polySurface15 polySurface14 polySurface12 polySurface9 polySurface7 polySurface5 polySurface3 polySurface1 pPlane1
f 2/1/1 1/2/2 3/3/3 4/4/4
